<svg width="121" height="120" viewBox="0 0 121 120" fill="none" xmlns="http://www.w3.org/2000/svg">
<g clip-path="url(#clip0_13_123)">
<path d="M31.825 108.75H26C24.6739 108.75 23.4021 108.223 22.4645 107.286C21.5268 106.348 21 105.076 21 103.75V16.25C21 14.9239 21.5268 13.6521 22.4645 12.7145C23.4021 11.7768 24.6739 11.25 26 11.25H31.825M31.825 108.75V11.25M31.825 108.75H94C95.3261 108.75 96.5978 108.223 97.5355 107.286C98.4732 106.348 99 105.076 99 103.75V16.25C99 14.9239 98.4732 13.6521 97.5355 12.7145C96.5978 11.7768 95.3261 11.25 94 11.25H31.825" stroke="#0D0D0D" stroke-width="2.5" stroke-linecap="round" stroke-linejoin="round"/>
<path d="M50.6675 29.14H80.1575V43.9925H50.6675V29.14Z" stroke="#0D0D0D" stroke-width="2.5" stroke-linecap="round" stroke-linejoin="round"/>
<line x1="53.3" y1="72.7917" x2="76.7" y2="72.7917" stroke="#0D0D0D" stroke-width="2"/>
<path d="M39 57L52 88L65 57L78 88L91 57" stroke="#0D0D0D" stroke-width="2"/>
</g>
<defs>
<clipPath id="clip0_13_123">
<rect width="120" height="120" fill="white"/>
</clipPath>
</defs>
</svg>
