<svg width="32" height="37" viewBox="0 0 32 37" fill="none" xmlns="http://www.w3.org/2000/svg">
<path d="M5.8421 9.73684C5.84211 7.15447 6.86795 4.67787 8.69396 2.85186C10.52 1.02584 12.9966 0 15.5789 0C18.1613 0 20.6379 1.02584 22.4639 2.85186C24.2899 4.67787 25.3158 7.15447 25.3158 9.73684C25.3158 12.3192 24.2899 14.7958 22.4639 16.6218C20.6379 18.4478 18.1613 19.4737 15.5789 19.4737C12.9966 19.4737 10.52 18.4478 8.69396 16.6218C6.86795 14.7958 5.8421 12.3192 5.8421 9.73684ZM15.5789 15.5789C17.1284 15.5789 18.6143 14.9634 19.7099 13.8678C20.8055 12.7722 21.4211 11.2863 21.4211 9.73684C21.4211 8.18742 20.8055 6.70146 19.7099 5.60585C18.6143 4.51024 17.1284 3.89474 15.5789 3.89474C14.0295 3.89474 12.5436 4.51024 11.448 5.60585C10.3523 6.70146 9.73684 8.18742 9.73684 9.73684C9.73684 11.2863 10.3523 12.7722 11.448 13.8678C12.5436 14.9634 14.0295 15.5789 15.5789 15.5789ZM4.56268 25.9837C3.11606 27.4304 1.96856 29.1479 1.18569 31.0381C0.402824 32.9282 -7.45364e-05 34.9541 1.03429e-08 37H3.89474C3.89474 33.9012 5.12575 30.9292 7.31696 28.738C9.50818 26.5468 12.4801 25.3158 15.5789 25.3158C18.6778 25.3158 21.6497 26.5468 23.8409 28.738C26.0321 30.9292 27.2632 33.9012 27.2632 37H31.1579C31.158 33.9187 30.2444 30.9066 28.5325 28.3445C26.8207 25.7825 24.3876 23.7856 21.5408 22.6064C18.6941 21.4272 15.5616 21.1187 12.5395 21.7199C9.5174 22.321 6.74144 23.8049 4.56268 25.9837Z" fill="#0D0D0D"/>
</svg>
