<svg width="60" height="60" viewBox="0 0 60 60" fill="none" xmlns="http://www.w3.org/2000/svg">
<g clip-path="url(#clip0_37_1650)">
<path d="M32.6667 45.1267L41.7667 39.8733C42.74 39.3117 43.225 39.0317 43.5783 38.64C43.891 38.293 44.1272 37.8842 44.2717 37.44C44.4333 36.9383 44.4333 36.3783 44.4333 35.2617V24.7383C44.4333 23.6217 44.4333 23.0617 44.27 22.56C44.1255 22.1158 43.8893 21.707 43.5767 21.36C43.2267 20.97 42.7433 20.69 41.7783 20.1333L32.6667 14.8733C31.695 14.3117 31.21 14.0317 30.6933 13.9233C30.2362 13.8261 29.7638 13.8261 29.3067 13.9233C28.79 14.0317 28.305 14.3117 27.3333 14.8733L18.23 20.1283C17.26 20.6883 16.775 20.9683 16.4233 21.36C16.1107 21.707 15.8745 22.1158 15.73 22.56C15.5667 23.0633 15.5667 23.6233 15.5667 24.745V35.2533C15.5667 36.375 15.5667 36.9367 15.73 37.4383C15.8745 37.8825 16.1107 38.2913 16.4233 38.6383C16.775 39.0317 17.2617 39.3117 18.2317 39.8717L27.3317 45.1267C28.305 45.6883 28.79 45.9683 29.3067 46.0767C29.7633 46.175 30.2367 46.175 30.6933 46.0767C31.21 45.9683 31.695 45.6883 32.6667 45.1267Z" stroke="#0D0D0D" stroke-width="3.33333" stroke-linecap="round" stroke-linejoin="round"/>
<path d="M25 30C25 31.3261 25.5268 32.5979 26.4645 33.5355C27.4021 34.4732 28.6739 35 30 35C31.3261 35 32.5979 34.4732 33.5355 33.5355C34.4732 32.5979 35 31.3261 35 30C35 28.6739 34.4732 27.4021 33.5355 26.4645C32.5979 25.5268 31.3261 25 30 25C28.6739 25 27.4021 25.5268 26.4645 26.4645C25.5268 27.4021 25 28.6739 25 30Z" stroke="#0D0D0D" stroke-width="3.33333" stroke-linecap="round" stroke-linejoin="round"/>
</g>
<defs>
<clipPath id="clip0_37_1650">
<rect width="40" height="40" fill="white" transform="translate(10 10)"/>
</clipPath>
</defs>
</svg>
